<?xml version="1.0" encoding="utf-8"?>
<!-- Generator: Adobe Illustrator 25.4.1, SVG Export Plug-In . SVG Version: 6.00 Build 0)  -->
<svg version="1.1" id="Layer_1" xmlns="http://www.w3.org/2000/svg" xmlns:xlink="http://www.w3.org/1999/xlink" x="0px" y="0px"
	 viewBox="0 0 309 49" style="enable-background:new 0 0 309 49;" xml:space="preserve">
<style type="text/css">
	.st0{fill:#273240;}
	.st1{fill:#448AFF;}
</style>
<g>
	<path class="st0" d="M75.6,14.1v7.7h-2.1c-2,0-3.5,0.5-4.5,1.5c-1,1-1.5,2.5-1.5,4.6v11.5h-8.7V14.1h7.9v2.7
		c1.6-2.1,3.7-3.1,6.4-3.1C74,13.7,74.8,13.8,75.6,14.1z"/>
	<path class="st0" d="M102.5,29.7H86.4c0.9,1.9,2.8,2.9,5.6,2.9c2.2,0,4.4-0.6,6.6-2l3.1,5.9c-3,2.3-6.3,3.4-10,3.4
		c-4.1,0-7.5-1.2-10.2-3.8c-2.7-2.5-4-5.7-4-9.4c0-3.7,1.3-6.8,3.9-9.4c2.6-2.6,5.8-3.8,9.6-3.8c3.6,0,6.5,1.2,8.7,3.5
		c2.2,2.3,3.3,5.1,3.3,8.5C103.1,26.9,102.9,28.3,102.5,29.7z M86.1,24.1h8.8c0-1.1-0.4-2-1.2-2.7c-0.8-0.7-1.8-1.1-2.9-1.1
		c-1.1,0-2.1,0.3-2.9,1C87,21.9,86.4,22.8,86.1,24.1z"/>
	<path class="st0" d="M105.2,35.1l4-5.1c2.2,2.1,4.5,3.1,7,3.1c1.5,0,2.2-0.4,2.2-1.1c0-0.4-0.5-0.9-1.5-1.2l-2.8-1.2
		c-2.6-1-4.5-2.2-5.6-3.4c-1.1-1.2-1.7-2.8-1.7-4.7c0-2.5,0.9-4.4,2.7-5.8c1.8-1.4,4.1-2.1,7.1-2.1c4,0,7.1,1.2,9.5,3.7l-4.1,5.3
		c-1.7-1.4-3.5-2.2-5.3-2.2c-1.2,0-1.8,0.3-1.8,1c0,0.5,0.6,0.9,1.7,1.4l2.5,1c2.7,1,4.5,2.1,5.7,3.3c1.1,1.2,1.7,2.7,1.7,4.6
		c0,2.6-1,4.6-2.9,6.2c-2,1.5-4.5,2.2-7.5,2.2c-2.3,0-4.3-0.4-6.2-1.2C107.9,37.8,106.3,36.6,105.2,35.1z"/>
	<path class="st0" d="M154.3,17.2c2.3,2.5,3.4,5.6,3.4,9.5c0,3.8-1.1,7-3.4,9.5c-2.3,2.5-5.2,3.8-8.7,3.8c-2.7,0-4.8-0.8-6.5-2.3
		v10.8h-8.7V14.1h7.9v2.6c1.5-2.2,3.9-3.2,7.2-3.2C149.1,13.5,152,14.7,154.3,17.2z M147.3,30.6c1-1,1.4-2.3,1.4-3.9
		c0-1.6-0.5-2.9-1.4-3.9c-0.9-1-2.1-1.4-3.6-1.4c-1.4,0-2.6,0.5-3.5,1.4c-0.9,0.9-1.4,2.2-1.4,3.9s0.5,3,1.4,3.9
		c0.9,1,2.1,1.5,3.5,1.5C145.2,32,146.4,31.6,147.3,30.6z"/>
	<path class="st0" d="M160.8,26.7c-0.1-3.6,1.3-6.7,4-9.4c2.7-2.6,6-3.9,9.7-3.9c3.8-0.1,7,1.2,9.8,3.9c2.7,2.6,4.1,5.8,4,9.4
		c0.1,3.6-1.3,6.7-4,9.4c-2.7,2.6-6,3.9-9.8,3.9c-3.8,0.1-7-1.2-9.7-3.9C162,33.4,160.7,30.3,160.8,26.7z M178,30.4
		c0.9-1,1.4-2.3,1.4-3.7c0-1.5-0.5-2.8-1.4-3.7c-0.9-1-2.1-1.5-3.5-1.5c-1.4,0-2.6,0.5-3.5,1.5c-0.9,1-1.4,2.2-1.4,3.8
		c0,1.6,0.4,2.9,1.4,3.8c0.9,1,2.1,1.4,3.5,1.4C175.9,31.9,177.1,31.4,178,30.4z"/>
	<path class="st0" d="M217.3,23.8v15.5h-8.7V25c0-1.1-0.3-2-1-2.7c-0.7-0.7-1.6-1-2.7-1c-1.1,0-2,0.4-2.6,1c-0.7,0.7-1,1.6-1,2.7
		v14.3h-8.7V14.1h7.9v2.1c1.9-1.8,4.3-2.7,7.1-2.7c2.9,0,5.3,0.9,7,2.8C216.4,18.1,217.3,20.6,217.3,23.8z"/>
	<path class="st0" d="M240,1.5h8.7v37.8h-7.9v-2.6c-1.5,2.1-3.9,3.2-7.2,3.2c-3.5,0-6.4-1.2-8.7-3.7c-2.3-2.5-3.4-5.6-3.4-9.4
		s1.1-7,3.4-9.5c2.3-2.5,5.2-3.7,8.7-3.7c2.7,0,4.8,0.8,6.4,2.3V1.5z M238.8,30.6c0.9-0.9,1.4-2.2,1.4-3.9s-0.5-3-1.4-3.9
		c-0.9-1-2.1-1.5-3.5-1.5s-2.5,0.5-3.5,1.4c-1,1-1.4,2.3-1.4,3.9s0.5,2.9,1.4,3.9c0.9,1,2.1,1.4,3.5,1.4
		C236.7,32,237.9,31.6,238.8,30.6z"/>
	<path class="st0" d="M254.5,37.2c-1.1-1.1-1.6-2.4-1.6-4c0-1.6,0.5-3,1.6-4c1.1-1.1,2.5-1.6,4.1-1.6c1.6,0,2.9,0.5,4,1.6
		c1.1,1.1,1.6,2.4,1.6,4c0,1.6-0.5,3-1.6,4c-1,1.1-2.4,1.6-4,1.6C257,38.8,255.6,38.3,254.5,37.2z"/>
	<path class="st0" d="M269,8.8c-1-1-1.5-2.2-1.5-3.6c0-1.4,0.5-2.7,1.5-3.7c1-1,2.3-1.5,3.7-1.5c1.5,0,2.7,0.5,3.8,1.5
		c1,1,1.6,2.2,1.6,3.7c0,1.4-0.5,2.6-1.6,3.6c-1,1-2.3,1.5-3.8,1.5C271.2,10.3,270,9.8,269,8.8z M268.4,39.3V14.1h8.7v25.2H268.4z"
		/>
	<path class="st0" d="M281.5,26.7c-0.1-3.6,1.3-6.7,4-9.4c2.7-2.6,6-3.9,9.7-3.9c3.8-0.1,7,1.2,9.8,3.9c2.7,2.6,4.1,5.8,4,9.4
		c0.1,3.6-1.3,6.7-4,9.4c-2.7,2.6-6,3.9-9.8,3.9c-3.8,0.1-7-1.2-9.7-3.9C282.8,33.4,281.4,30.3,281.5,26.7z M298.7,30.4
		c0.9-1,1.4-2.3,1.4-3.7c0-1.5-0.5-2.8-1.4-3.7c-0.9-1-2.1-1.5-3.5-1.5c-1.4,0-2.6,0.5-3.5,1.5c-0.9,1-1.4,2.2-1.4,3.8
		c0,1.6,0.4,2.9,1.4,3.8c0.9,1,2.1,1.4,3.5,1.4C296.7,31.9,297.8,31.4,298.7,30.4z"/>
	<path class="st1" d="M16.8,35.3c1,1.2,0.8,3-0.4,4c-0.5,0.4-1.1,0.6-1.8,0.6c-0.1,0-0.2,0-0.3,0c-0.8-0.1-1.4-0.4-1.9-1L0.7,24.7
		l-0.2-0.2v-0.1c-0.9-1.2-0.7-2.9,0.5-3.9c1-0.8,2.4-0.8,3.4-0.2l0.1-0.1L5,21L16.8,35.3z M38.5,8.7c-1.2-1-3-0.8-3.9,0.4l-10,12.1
		c-0.1,0.1-0.1,0.1-0.1,0.2c-1,1.2-0.8,3,0.4,4c0.5,0.4,1.1,0.6,1.8,0.6c0.1,0,0.2,0,0.3,0c0.8-0.1,1.4-0.4,1.9-1L39,12.7
		C39.9,11.5,39.7,9.7,38.5,8.7z"/>
	<path class="st1" d="M50.6,11.3c-0.1-0.8-0.5-1.5-1.1-1.9c-0.6-0.5-1.4-0.7-2.1-0.6c-0.8,0.1-1.5,0.4-2,1.1L26.5,33l-9.8-12
		c-1-1.2-2.8-1.4-4-0.4c-0.6,0.5-0.9,1.2-1,1.9c-0.1,0.8,0.2,1.5,0.6,2.1l12.1,14.7c0.5,0.6,1.2,0.9,1.9,1c0.1,0,0.2,0,0.3,0
		c0.6,0,1.3-0.2,1.8-0.6c0.2-0.1,0.3-0.3,0.4-0.4l21.1-25.7c0,0,0.1-0.1,0.1-0.1C50.4,12.8,50.7,12.1,50.6,11.3z"/>
</g>
</svg>
