<svg xmlns="http://www.w3.org/2000/svg" xmlns:xlink="http://www.w3.org/1999/xlink" version="1.1" id="Layer_1" x="0px" y="0px" viewBox="0 0 307.2 109.43" style="enable-background:new 0 0 307.2 109.43;" xml:space="preserve">
<style type="text/css">
	.st0{fill:#416aaa;}
</style>
<g>
	<g>
		<path class="st0" d="M35.39,71.18H16.3c-0.31,0-0.57-0.26-0.57-0.57V50.96l19.82,19.82C35.78,71,35.7,71.18,35.39,71.18     M53.64,70.85c0-0.31-0.18-0.75-0.4-0.97L34.59,51.22c-0.22-0.22-0.22-0.58,0-0.81l16.73-16.76c0.22-0.22,0.15-0.4-0.17-0.4h-17.5    c-0.31,0-0.75,0.18-0.97,0.4L15.73,50.67l0-16.85c0-0.31-0.26-0.57-0.57-0.57h-12c-0.31,0-0.57,0.26-0.57,0.57v49.91    c0,0.31,0.26,0.57,0.57,0.57h49.91c0.31,0,0.57-0.26,0.57-0.57V70.85z"/>
		<path class="st0" d="M24.07,91.03c-0.22-0.22-0.58-0.22-0.81,0L15.9,98.4c-0.22,0.22-0.22,0.58,0,0.81l7.36,7.37    c0.22,0.22,0.58,0.22,0.81,0l7.37-7.37c0.22-0.22,0.22-0.58,0-0.81L24.07,91.03z"/>
		<path class="st0" d="M15.9,24.92c-0.22,0.22-0.22,0.58,0,0.81l7.37,7.37c0.22,0.22,0.58,0.22,0.8,0l7.37-7.37    c0.22-0.22,0.22-0.58,0-0.81l-7.37-7.37c-0.11-0.11-0.26-0.17-0.4-0.17c-0.15,0-0.29,0.06-0.4,0.17L15.9,24.92z"/>
		<path class="st0" d="M31.43,9.86c0.22-0.22,0.22-0.58,0-0.81l-7.37-7.37c-0.22-0.22-0.58-0.22-0.8,0L15.9,9.05    c-0.22,0.22-0.22,0.58,0,0.81l7.37,7.37c0.11,0.11,0.26,0.17,0.4,0.17c0.15,0,0.29-0.06,0.4-0.17L31.43,9.86z"/>
	</g>
	<rect x="142.7" y="54.59" class="st0" width="1.39" height="31.8"/>
	<g>
		<path class="st0" d="M82.47,70.49c-0.57-0.61-1.25-1.14-2.05-1.59c-0.8-0.45-1.72-0.88-2.75-1.3l-2.17-0.85    c-0.54-0.21-1.06-0.44-1.55-0.7c-0.49-0.26-0.92-0.55-1.28-0.87c-0.36-0.32-0.65-0.7-0.87-1.12c-0.22-0.43-0.33-0.91-0.33-1.45    c0-1.32,0.44-2.31,1.32-2.96c0.88-0.66,2.13-0.99,3.76-0.99c1.16,0,2.2,0.1,3.12,0.31c0.91,0.21,1.72,0.44,2.42,0.7    c0.44-1.06,0.72-2.13,0.85-3.22c-0.85-0.31-1.83-0.57-2.94-0.77c-1.11-0.21-2.29-0.31-3.53-0.31c-2.89,0-5.14,0.66-6.74,1.99    c-1.6,1.33-2.4,3.17-2.4,5.52c0,0.98,0.13,1.83,0.39,2.54c0.26,0.71,0.61,1.34,1.06,1.88c0.45,0.54,0.99,1,1.61,1.38    c0.62,0.37,1.3,0.72,2.05,1.03l2.21,0.89c0.88,0.36,1.64,0.7,2.3,1.01c0.66,0.31,1.21,0.65,1.65,1.03    c0.44,0.37,0.77,0.82,0.99,1.34c0.22,0.52,0.33,1.14,0.33,1.86c0,1.47-0.52,2.64-1.57,3.51c-1.05,0.87-2.63,1.3-4.75,1.3    c-1.34,0-2.48-0.12-3.41-0.35c-0.93-0.23-1.82-0.5-2.67-0.81c-0.21,0.57-0.4,1.15-0.58,1.74c-0.18,0.59-0.3,1.18-0.35,1.74    c0.54,0.18,1.07,0.35,1.59,0.5c0.52,0.16,1.05,0.28,1.61,0.39c0.56,0.1,1.16,0.18,1.8,0.23c0.64,0.05,1.37,0.08,2.17,0.08    c3.3,0,5.87-0.77,7.71-2.3c1.83-1.54,2.75-3.64,2.75-6.3c0-1.11-0.15-2.08-0.44-2.91C83.47,71.81,83.03,71.09,82.47,70.49"/>
		<path class="st0" d="M101.25,67.52c-0.38,0.76-0.87,1.36-1.49,1.8c-0.62,0.44-1.33,0.74-2.11,0.91c-0.79,0.17-1.58,0.25-2.38,0.25    c-0.59,0-1.05-0.01-1.36-0.04c-0.31-0.03-0.67-0.07-1.09-0.12V59.06c0.72-0.08,1.56-0.12,2.52-0.12c0.93,0,1.8,0.09,2.6,0.27    c0.8,0.18,1.49,0.49,2.05,0.93c0.57,0.44,1.01,1.02,1.34,1.74c0.32,0.72,0.48,1.61,0.48,2.67    C101.81,65.77,101.62,66.76,101.25,67.52 M102.76,57.43c-0.97-0.7-2.09-1.19-3.37-1.47c-1.28-0.28-2.63-0.43-4.05-0.43    c-0.54,0-1.1,0.01-1.68,0.04c-0.58,0.03-1.16,0.06-1.74,0.1c-0.58,0.04-1.14,0.08-1.67,0.13c-0.53,0.05-0.99,0.1-1.38,0.16v27.9    c0.31,0.05,0.64,0.08,0.99,0.1c0.35,0.01,0.68,0.02,0.99,0.02c0.7,0,1.36-0.04,1.98-0.12V73.78c0.44,0.05,0.85,0.08,1.22,0.1    c0.38,0.01,0.81,0.02,1.3,0.02c1.32,0,2.61-0.15,3.87-0.44c1.27-0.3,2.4-0.81,3.39-1.53c0.99-0.72,1.79-1.68,2.4-2.89    c0.61-1.2,0.91-2.7,0.91-4.51c0-1.73-0.28-3.17-0.85-4.32C104.5,59.05,103.73,58.13,102.76,57.43"/>
		<path class="st0" d="M125.85,80.39c-0.88,0.18-1.86,0.27-2.94,0.27c-1.39,0-2.65-0.22-3.78-0.66c-1.12-0.44-2.09-1.1-2.89-1.98    c-0.8-0.88-1.42-1.99-1.86-3.33c-0.44-1.34-0.66-2.93-0.66-4.77c0-3.59,0.78-6.34,2.34-8.25c1.56-1.91,3.75-2.87,6.57-2.87    c0.65,0,1.22,0.02,1.72,0.06c0.5,0.04,0.96,0.1,1.38,0.17c0.41,0.08,0.8,0.17,1.16,0.27c0.36,0.1,0.74,0.22,1.12,0.35    c0.23-0.57,0.43-1.11,0.6-1.61c0.17-0.5,0.28-1.05,0.33-1.65c-0.83-0.28-1.77-0.53-2.83-0.74c-1.06-0.21-2.32-0.31-3.8-0.31    c-1.99,0-3.78,0.34-5.39,1.02c-1.6,0.69-2.96,1.66-4.07,2.93c-1.11,1.26-1.96,2.8-2.56,4.59c-0.59,1.8-0.89,3.81-0.89,6.02    c0,2.2,0.3,4.17,0.89,5.93c0.59,1.76,1.45,3.25,2.56,4.47c1.11,1.23,2.47,2.17,4.09,2.83c1.61,0.66,3.43,0.99,5.44,0.99    c1.32,0,2.54-0.1,3.68-0.31c1.14-0.21,2.25-0.54,3.33-1.01c-0.16-1.03-0.52-2.11-1.09-3.22    C127.56,79.95,126.73,80.21,125.85,80.39"/>
		<path class="st0" d="M188.54,72.75c0.17-1.62,0.64-2.88,1.43-3.78c0.78-0.91,1.91-1.36,3.37-1.36c0.74,0,1.39,0.14,1.93,0.42    c0.54,0.28,0.98,0.65,1.33,1.12c0.35,0.47,0.61,1.01,0.79,1.64c0.18,0.62,0.27,1.28,0.27,1.96H188.54z M199.22,67.19    c-0.65-0.77-1.46-1.38-2.42-1.82c-0.96-0.44-2.08-0.66-3.35-0.66c-1.49,0-2.78,0.26-3.88,0.79c-1.09,0.53-2,1.24-2.72,2.13    c-0.72,0.89-1.26,1.95-1.61,3.16c-0.35,1.21-0.52,2.51-0.52,3.91c0,1.42,0.18,2.72,0.54,3.91c0.36,1.19,0.93,2.22,1.71,3.08    c0.78,0.87,1.77,1.54,2.98,2.02c1.2,0.48,2.64,0.72,4.33,0.72c1.15,0,2.21-0.09,3.16-0.26c0.95-0.17,1.82-0.43,2.61-0.77    c-0.02-0.51-0.1-1.03-0.21-1.56c-0.12-0.53-0.28-0.97-0.47-1.34c-1.54,0.61-3.16,0.92-4.87,0.92c-1.95,0-3.42-0.48-4.42-1.43    c-1-0.95-1.52-2.46-1.57-4.52h12.59c0.02-0.27,0.05-0.59,0.07-0.97c0.02-0.38,0.04-0.74,0.04-1.08c0-1.25-0.17-2.41-0.51-3.47    C200.36,68.87,199.87,67.96,199.22,67.19"/>
		<path class="st0" d="M207.74,72.75c0.17-1.62,0.64-2.88,1.43-3.78c0.78-0.91,1.91-1.36,3.37-1.36c0.75,0,1.39,0.14,1.93,0.42    c0.54,0.28,0.99,0.65,1.33,1.12c0.35,0.47,0.62,1.01,0.8,1.64c0.18,0.62,0.27,1.28,0.27,1.96H207.74z M219.9,69.94    c-0.34-1.07-0.83-1.98-1.48-2.76c-0.65-0.77-1.46-1.38-2.42-1.82c-0.96-0.44-2.08-0.66-3.35-0.66c-1.49,0-2.78,0.26-3.88,0.79    c-1.09,0.53-2,1.24-2.72,2.13c-0.72,0.89-1.26,1.95-1.61,3.16c-0.35,1.21-0.52,2.51-0.52,3.91c0,1.42,0.18,2.72,0.54,3.91    c0.36,1.19,0.93,2.22,1.71,3.08c0.78,0.87,1.77,1.54,2.97,2.02c1.2,0.48,2.65,0.72,4.33,0.72c1.15,0,2.21-0.09,3.15-0.26    c0.95-0.17,1.82-0.43,2.62-0.77c-0.02-0.51-0.09-1.04-0.21-1.56c-0.12-0.53-0.28-0.97-0.47-1.34c-1.54,0.61-3.16,0.92-4.87,0.92    c-1.95,0-3.42-0.48-4.42-1.43c-1-0.95-1.52-2.46-1.57-4.52h12.59c0.02-0.27,0.05-0.59,0.07-0.97c0.02-0.38,0.04-0.74,0.04-1.09    C220.41,72.16,220.24,71.01,219.9,69.94"/>
		<path class="st0" d="M183.48,65.11c-0.14-0.02-0.32-0.04-0.52-0.05c-0.2-0.01-0.4-0.02-0.59-0.02c-1.3,0-2.36,0.31-3.19,0.92    c-0.83,0.61-1.5,1.33-2,2.17c0-0.42-0.04-0.92-0.11-1.52c-0.07-0.6-0.14-1.09-0.21-1.45c-0.22-0.05-0.46-0.09-0.72-0.11    c-0.27-0.02-0.53-0.04-0.79-0.04c-0.27,0-0.52,0.02-0.76,0.04c-0.24,0.02-0.49,0.06-0.76,0.11v18.84    c0.29,0.05,0.59,0.09,0.92,0.11c0.32,0.02,0.62,0.03,0.88,0.03c0.26,0,0.56-0.01,0.88-0.03c0.33-0.02,0.62-0.06,0.88-0.11v-9.37    c0-1.27,0.14-2.31,0.42-3.12c0.28-0.81,0.65-1.44,1.12-1.91c0.47-0.47,1-0.79,1.59-0.97c0.59-0.18,1.21-0.27,1.86-0.27h0.49    c0.2,0,0.4,0.02,0.6,0.07c0.05-0.29,0.09-0.6,0.12-0.92c0.04-0.32,0.06-0.63,0.06-0.92c0-0.27-0.01-0.53-0.03-0.77    C183.57,65.56,183.53,65.33,183.48,65.11"/>
		<path class="st0" d="M170.88,57.58h-13.56v26.41c0.27,0.05,0.56,0.09,0.88,0.11c0.33,0.02,0.65,0.03,0.96,0.03    c0.34,0,0.66-0.01,0.96-0.03c0.3-0.02,0.6-0.06,0.88-0.11V71.9h8.26c0.05-0.27,0.08-0.55,0.11-0.83c0.02-0.28,0.04-0.56,0.04-0.82    c0-0.27-0.01-0.55-0.04-0.83c-0.02-0.28-0.06-0.56-0.11-0.82H161v-7.75h9.88c0.05-0.25,0.09-0.51,0.11-0.81    c0.02-0.29,0.04-0.58,0.04-0.84c0-0.27-0.01-0.55-0.04-0.83C170.97,58.09,170.93,57.83,170.88,57.58"/>
		<path class="st0" d="M261.78,79.69c-0.79,1.22-2.02,1.84-3.68,1.84c-1.66,0-2.88-0.61-3.66-1.84c-0.78-1.23-1.17-2.93-1.17-5.11    c0-2.18,0.39-3.87,1.17-5.09c0.78-1.21,2-1.82,3.66-1.82c1.66,0,2.89,0.61,3.68,1.82c0.79,1.21,1.19,2.91,1.19,5.09    C262.97,76.76,262.57,78.47,261.78,79.69 M266.2,70.69c-0.35-1.2-0.88-2.24-1.6-3.12c-0.72-0.88-1.62-1.58-2.71-2.09    c-1.08-0.51-2.35-0.77-3.79-0.77c-1.44,0-2.7,0.26-3.79,0.77c-1.08,0.52-1.99,1.21-2.71,2.09c-0.72,0.88-1.26,1.92-1.6,3.12    c-0.35,1.2-0.52,2.5-0.52,3.89c0,1.4,0.17,2.69,0.52,3.89c0.35,1.2,0.88,2.24,1.6,3.12c0.72,0.88,1.62,1.57,2.71,2.07    c1.08,0.5,2.34,0.75,3.79,0.75c1.44,0,2.71-0.25,3.79-0.75c1.08-0.5,1.98-1.19,2.71-2.07c0.72-0.88,1.26-1.92,1.6-3.12    c0.35-1.2,0.53-2.5,0.53-3.89C266.72,73.19,266.55,71.89,266.2,70.69"/>
		<path class="st0" d="M248.39,57.58h-16.85c-0.05,0.25-0.08,0.52-0.11,0.81c-0.02,0.29-0.03,0.58-0.03,0.84    c0,0.27,0.01,0.55,0.03,0.85c0.03,0.29,0.06,0.55,0.11,0.77h11.44l-13.06,22.81l0.22,0.33h17.57c0.05-0.22,0.08-0.48,0.11-0.77    c0.02-0.29,0.04-0.58,0.04-0.85c0-0.27-0.01-0.56-0.04-0.86c-0.02-0.31-0.06-0.57-0.11-0.79h-12.16l13.09-22.81L248.39,57.58z"/>
		<path class="st0" d="M291.55,72.75c0.17-1.62,0.64-2.88,1.42-3.78c0.78-0.91,1.9-1.36,3.37-1.36c0.75,0,1.39,0.14,1.93,0.42    c0.54,0.28,0.99,0.65,1.34,1.12c0.35,0.47,0.61,1.01,0.79,1.64c0.18,0.62,0.27,1.28,0.27,1.96H291.55z M303.71,69.94    c-0.34-1.07-0.83-1.98-1.48-2.76c-0.65-0.77-1.46-1.38-2.42-1.82c-0.96-0.44-2.08-0.66-3.35-0.66c-1.49,0-2.79,0.26-3.88,0.79    c-1.09,0.53-2,1.24-2.72,2.13c-0.72,0.89-1.26,1.95-1.61,3.16c-0.35,1.21-0.52,2.51-0.52,3.91c0,1.42,0.18,2.72,0.54,3.91    c0.36,1.19,0.93,2.22,1.71,3.08c0.78,0.87,1.78,1.54,2.98,2.02c1.2,0.48,2.65,0.72,4.33,0.72c1.15,0,2.21-0.09,3.16-0.26    c0.95-0.17,1.82-0.43,2.61-0.77c-0.02-0.51-0.1-1.04-0.21-1.56c-0.12-0.53-0.28-0.97-0.47-1.34c-1.54,0.61-3.16,0.92-4.87,0.92    c-1.95,0-3.42-0.48-4.42-1.43c-1-0.95-1.52-2.46-1.57-4.52h12.59c0.02-0.27,0.05-0.59,0.07-0.97c0.03-0.38,0.04-0.74,0.04-1.09    C304.21,72.16,304.04,71.01,303.71,69.94"/>
		<path class="st0" d="M278.97,64.71c-0.75,0-1.43,0.1-2.06,0.31c-0.63,0.21-1.18,0.48-1.66,0.81c-0.48,0.33-0.91,0.7-1.28,1.12    c-0.37,0.42-0.68,0.83-0.92,1.25c0-0.42-0.04-0.94-0.11-1.56c-0.07-0.62-0.14-1.12-0.22-1.49c-0.26-0.05-0.51-0.09-0.74-0.11    c-0.23-0.02-0.47-0.04-0.74-0.04c-0.26,0-0.52,0.02-0.77,0.04c-0.25,0.02-0.51,0.06-0.77,0.11v18.84c0.26,0.05,0.57,0.09,0.9,0.11    c0.34,0.02,0.64,0.03,0.9,0.03c0.26,0,0.56-0.01,0.88-0.03c0.33-0.02,0.62-0.06,0.88-0.11v-9.55c0-1.15,0.14-2.14,0.42-2.95    c0.28-0.82,0.64-1.49,1.1-2c0.46-0.51,0.99-0.89,1.59-1.14c0.6-0.25,1.24-0.37,1.91-0.37c1.16,0,2,0.41,2.53,1.23    c0.53,0.82,0.8,2.1,0.8,3.84v10.95c0.26,0.05,0.56,0.09,0.88,0.11c0.33,0.02,0.62,0.03,0.88,0.03c0.26,0,0.56-0.01,0.9-0.03    c0.33-0.02,0.64-0.06,0.9-0.11V72.05c0-2.42-0.51-4.25-1.52-5.49C282.65,65.33,281.09,64.71,278.97,64.71"/>
	</g>
	<polygon class="st0" points="164.39,105.35 162.54,98.55 162.52,98.55 160.65,105.35 159.53,105.35 157.45,97.25 158.55,97.25    160.14,103.99 160.16,103.99 161.97,97.25 163.14,97.25 164.93,103.99 164.96,103.99 166.6,97.25 167.68,97.25 165.51,105.35  "/>
	<polygon class="st0" points="169.66,97.25 169.66,100.73 173.92,100.73 173.92,97.25 175,97.25 175,105.35 173.92,105.35    173.92,101.64 169.66,101.64 169.66,105.35 168.58,105.35 168.58,97.25  "/>
	<polygon class="st0" points="182.25,97.25 182.25,98.16 177.73,98.16 177.73,100.73 181.94,100.73 181.94,101.64 177.73,101.64    177.73,104.44 182.28,104.44 182.28,105.35 176.66,105.35 176.66,97.25  "/>
	<g>
		<path class="st0" d="M187.51,100.93c0.23-0.04,0.42-0.11,0.59-0.22c0.17-0.11,0.31-0.26,0.41-0.44c0.1-0.18,0.15-0.42,0.15-0.72    c0-0.41-0.11-0.74-0.34-1c-0.23-0.26-0.59-0.39-1.1-0.39h-2.68v2.82h2.24C187.04,100.98,187.28,100.96,187.51,100.93     M187.28,97.25c0.77,0,1.37,0.19,1.81,0.57c0.43,0.38,0.65,0.9,0.65,1.55c0,0.49-0.11,0.92-0.33,1.29    c-0.22,0.37-0.58,0.62-1.07,0.76v0.02c0.23,0.05,0.42,0.12,0.57,0.23c0.15,0.11,0.26,0.23,0.35,0.38    c0.09,0.15,0.15,0.31,0.19,0.49c0.04,0.18,0.07,0.37,0.1,0.57c0.02,0.2,0.03,0.4,0.03,0.6c0.01,0.2,0.03,0.4,0.06,0.6    c0.03,0.2,0.07,0.38,0.13,0.56c0.06,0.18,0.14,0.34,0.26,0.47h-1.2c-0.07-0.08-0.13-0.2-0.15-0.34c-0.03-0.14-0.04-0.3-0.05-0.48    c-0.01-0.18-0.02-0.37-0.02-0.57c-0.01-0.2-0.03-0.4-0.07-0.6c-0.03-0.2-0.07-0.38-0.11-0.56c-0.05-0.18-0.12-0.33-0.22-0.46    c-0.1-0.13-0.23-0.24-0.39-0.32c-0.16-0.08-0.37-0.12-0.63-0.12h-2.63v3.46h-1.08v-8.1H187.28z"/>
	</g>
	<polygon class="st0" points="196.71,97.25 196.71,98.16 192.2,98.16 192.2,100.73 196.41,100.73 196.41,101.64 192.2,101.64    192.2,104.44 196.75,104.44 196.75,105.35 191.12,105.35 191.12,97.25  "/>
	<polygon class="st0" points="203.38,97.25 205.27,102.82 205.3,102.82 207.09,97.25 209.59,97.25 209.59,105.35 207.93,105.35    207.93,99.61 207.9,99.61 205.92,105.35 204.55,105.35 202.56,99.67 202.54,99.67 202.54,105.35 200.87,105.35 200.87,97.25  "/>
	<g>
		<path class="st0" d="M212.59,102.33c0.08,0.32,0.21,0.61,0.38,0.87c0.17,0.26,0.4,0.46,0.68,0.62c0.28,0.15,0.62,0.23,1.02,0.23    s0.74-0.08,1.02-0.23c0.28-0.16,0.51-0.36,0.68-0.62c0.17-0.26,0.3-0.55,0.38-0.87c0.08-0.32,0.12-0.65,0.12-0.99    c0-0.36-0.04-0.7-0.12-1.03c-0.08-0.33-0.21-0.63-0.38-0.89c-0.17-0.26-0.4-0.47-0.68-0.62c-0.28-0.15-0.62-0.23-1.02-0.23    s-0.74,0.08-1.02,0.23c-0.28,0.16-0.51,0.36-0.68,0.62c-0.17,0.26-0.3,0.56-0.38,0.89c-0.08,0.33-0.12,0.68-0.12,1.03    C212.47,101.67,212.51,102.01,212.59,102.33 M210.97,99.65c0.18-0.52,0.44-0.97,0.78-1.35c0.34-0.39,0.76-0.69,1.25-0.91    c0.49-0.22,1.05-0.33,1.67-0.33c0.63,0,1.19,0.11,1.68,0.33c0.49,0.22,0.91,0.52,1.25,0.91c0.34,0.39,0.6,0.84,0.78,1.35    c0.18,0.52,0.27,1.08,0.27,1.68c0,0.59-0.09,1.14-0.27,1.65c-0.18,0.51-0.44,0.95-0.78,1.33c-0.34,0.38-0.76,0.67-1.25,0.89    c-0.49,0.21-1.05,0.32-1.68,0.32c-0.62,0-1.18-0.11-1.67-0.32c-0.49-0.22-0.91-0.51-1.25-0.89c-0.34-0.38-0.6-0.82-0.78-1.33    c-0.18-0.51-0.27-1.06-0.27-1.65C210.69,100.73,210.78,100.17,210.97,99.65"/>
		<path class="st0" d="M223.48,100.91c0.41,0,0.71-0.09,0.92-0.27c0.21-0.18,0.31-0.48,0.31-0.88c0-0.39-0.1-0.68-0.31-0.86    c-0.2-0.18-0.51-0.27-0.92-0.27h-1.95v2.28H223.48z M224.12,97.25c0.36,0,0.69,0.06,0.98,0.18c0.29,0.12,0.54,0.28,0.75,0.48    c0.21,0.21,0.37,0.44,0.48,0.71c0.11,0.27,0.16,0.56,0.16,0.87c0,0.48-0.1,0.89-0.3,1.24c-0.2,0.35-0.53,0.61-0.98,0.79v0.02    c0.22,0.06,0.4,0.15,0.54,0.28c0.14,0.12,0.26,0.27,0.35,0.44c0.09,0.17,0.16,0.36,0.2,0.56c0.04,0.2,0.07,0.41,0.09,0.61    c0.01,0.13,0.02,0.28,0.02,0.45c0.01,0.17,0.02,0.35,0.04,0.53c0.02,0.18,0.05,0.35,0.09,0.52c0.04,0.16,0.1,0.3,0.19,0.41h-1.78    c-0.1-0.26-0.16-0.56-0.18-0.92c-0.02-0.35-0.06-0.69-0.1-1.02c-0.06-0.42-0.19-0.73-0.39-0.93c-0.2-0.2-0.52-0.29-0.96-0.29    h-1.78v3.16h-1.78v-8.1H224.12z"/>
	</g>
	<polygon class="st0" points="233.88,97.25 233.88,98.75 229.61,98.75 229.61,100.48 233.53,100.48 233.53,101.87 229.61,101.87    229.61,103.85 233.97,103.85 233.97,105.35 227.83,105.35 227.83,97.25  "/>
	<rect x="238.25" y="97.25" class="st0" width="1.08" height="8.09"/>
	<g>
		<path class="st0" d="M245.08,98.36c-0.36-0.26-0.82-0.39-1.38-0.39c-0.23,0-0.45,0.02-0.67,0.07c-0.22,0.05-0.41,0.12-0.58,0.23    c-0.17,0.11-0.31,0.25-0.41,0.43c-0.1,0.18-0.15,0.4-0.15,0.66c0,0.25,0.07,0.45,0.22,0.61c0.15,0.16,0.34,0.28,0.59,0.38    c0.25,0.1,0.52,0.18,0.83,0.24c0.31,0.06,0.63,0.13,0.95,0.21c0.32,0.08,0.64,0.16,0.95,0.27c0.31,0.1,0.59,0.24,0.83,0.41    c0.25,0.17,0.44,0.39,0.59,0.66c0.15,0.26,0.22,0.6,0.22,1c0,0.43-0.1,0.8-0.29,1.11c-0.19,0.3-0.44,0.55-0.74,0.75    c-0.3,0.19-0.64,0.33-1.01,0.42c-0.37,0.09-0.75,0.13-1.12,0.13c-0.45,0-0.88-0.06-1.29-0.17c-0.4-0.11-0.76-0.28-1.07-0.52    c-0.3-0.23-0.55-0.53-0.73-0.88c-0.18-0.36-0.27-0.78-0.27-1.28h1.02c0,0.34,0.07,0.63,0.2,0.88c0.13,0.25,0.31,0.45,0.52,0.61    c0.22,0.16,0.47,0.28,0.75,0.35c0.29,0.08,0.58,0.11,0.88,0.11c0.24,0,0.49-0.02,0.73-0.07c0.25-0.05,0.47-0.12,0.66-0.23    c0.2-0.11,0.35-0.26,0.48-0.45c0.12-0.19,0.18-0.43,0.18-0.73c0-0.28-0.07-0.51-0.22-0.68c-0.15-0.17-0.34-0.32-0.59-0.43    c-0.25-0.11-0.52-0.2-0.83-0.27c-0.31-0.07-0.63-0.14-0.95-0.21c-0.32-0.07-0.64-0.16-0.95-0.25c-0.31-0.09-0.59-0.22-0.83-0.37    c-0.25-0.16-0.44-0.35-0.59-0.6c-0.15-0.25-0.22-0.55-0.22-0.92c0-0.41,0.08-0.76,0.25-1.06c0.16-0.3,0.39-0.54,0.66-0.74    c0.28-0.19,0.59-0.34,0.94-0.43c0.35-0.09,0.71-0.14,1.08-0.14c0.42,0,0.8,0.05,1.16,0.15c0.35,0.1,0.67,0.25,0.94,0.46    c0.27,0.21,0.48,0.48,0.63,0.8s0.24,0.7,0.26,1.15h-1.02C245.64,99.04,245.44,98.62,245.08,98.36"/>
		<path class="st0" d="M254.48,101.13c0.61,0.01,1.06-0.12,1.34-0.37c0.28-0.26,0.43-0.63,0.43-1.11s-0.14-0.85-0.43-1.11    c-0.28-0.25-0.73-0.38-1.34-0.38h-2.11v2.97H254.48z M254.84,97.25c0.82,0,1.43,0.21,1.85,0.63c0.42,0.42,0.63,1.01,0.63,1.76    c0,0.76-0.21,1.34-0.63,1.77c-0.42,0.42-1.04,0.63-1.85,0.62h-2.47v3.31h-1.08v-8.1H254.84z"/>
		<path class="st0" d="M259.31,102.51c0.11,0.4,0.27,0.75,0.5,1.07c0.23,0.32,0.52,0.57,0.87,0.77c0.36,0.19,0.78,0.29,1.27,0.29    c0.49,0,0.91-0.1,1.27-0.29c0.36-0.19,0.65-0.45,0.87-0.77c0.23-0.32,0.39-0.68,0.5-1.07c0.11-0.4,0.16-0.8,0.16-1.21    c0-0.41-0.05-0.81-0.16-1.21c-0.11-0.4-0.27-0.75-0.5-1.07c-0.23-0.32-0.52-0.57-0.87-0.77c-0.35-0.19-0.78-0.29-1.27-0.29    c-0.49,0-0.91,0.1-1.27,0.29c-0.35,0.19-0.65,0.45-0.87,0.77c-0.23,0.32-0.39,0.68-0.5,1.07c-0.11,0.4-0.16,0.8-0.16,1.21    C259.15,101.71,259.21,102.11,259.31,102.51 M258.32,99.71c0.16-0.51,0.41-0.96,0.73-1.35c0.32-0.39,0.73-0.71,1.21-0.94    c0.48-0.23,1.05-0.35,1.69-0.35c0.64,0,1.21,0.12,1.69,0.35c0.48,0.23,0.89,0.55,1.21,0.94c0.33,0.39,0.57,0.84,0.73,1.35    c0.16,0.51,0.24,1.04,0.24,1.59c0,0.55-0.08,1.08-0.24,1.59c-0.16,0.51-0.41,0.96-0.73,1.36c-0.32,0.39-0.73,0.7-1.21,0.93    c-0.48,0.23-1.05,0.35-1.69,0.35c-0.64,0-1.2-0.12-1.69-0.35c-0.48-0.23-0.89-0.54-1.21-0.93c-0.33-0.39-0.57-0.85-0.73-1.36    c-0.16-0.51-0.24-1.04-0.24-1.59C258.08,100.75,258.16,100.22,258.32,99.71"/>
		<path class="st0" d="M271.09,98.36c-0.36-0.26-0.82-0.39-1.38-0.39c-0.23,0-0.45,0.02-0.67,0.07c-0.22,0.05-0.41,0.12-0.58,0.23    c-0.17,0.11-0.3,0.25-0.41,0.43c-0.1,0.18-0.15,0.4-0.15,0.66c0,0.25,0.07,0.45,0.22,0.61c0.15,0.16,0.34,0.28,0.59,0.38    c0.25,0.1,0.52,0.18,0.83,0.24c0.31,0.06,0.63,0.13,0.95,0.21c0.32,0.08,0.64,0.16,0.95,0.27c0.31,0.1,0.59,0.24,0.83,0.41    c0.25,0.17,0.44,0.39,0.59,0.66c0.15,0.26,0.22,0.6,0.22,1c0,0.43-0.1,0.8-0.29,1.11c-0.19,0.3-0.44,0.55-0.74,0.75    c-0.3,0.19-0.64,0.33-1.01,0.42c-0.37,0.09-0.75,0.13-1.12,0.13c-0.45,0-0.88-0.06-1.29-0.17c-0.4-0.11-0.76-0.28-1.07-0.52    c-0.31-0.23-0.55-0.53-0.73-0.88c-0.18-0.36-0.27-0.78-0.27-1.28h1.02c0,0.34,0.07,0.63,0.2,0.88c0.13,0.25,0.31,0.45,0.52,0.61    c0.22,0.16,0.47,0.28,0.75,0.35c0.29,0.08,0.58,0.11,0.88,0.11c0.24,0,0.49-0.02,0.73-0.07c0.25-0.05,0.47-0.12,0.66-0.23    c0.2-0.11,0.35-0.26,0.48-0.45c0.12-0.19,0.18-0.43,0.18-0.73c0-0.28-0.07-0.51-0.22-0.68c-0.15-0.17-0.34-0.32-0.59-0.43    c-0.25-0.11-0.52-0.2-0.83-0.27c-0.31-0.07-0.63-0.14-0.95-0.21c-0.32-0.07-0.64-0.16-0.95-0.25c-0.31-0.09-0.59-0.22-0.83-0.37    c-0.25-0.16-0.44-0.35-0.59-0.6c-0.15-0.25-0.22-0.55-0.22-0.92c0-0.41,0.08-0.76,0.25-1.06c0.16-0.3,0.39-0.54,0.66-0.74    c0.28-0.19,0.59-0.34,0.94-0.43c0.35-0.09,0.71-0.14,1.08-0.14c0.42,0,0.8,0.05,1.16,0.15c0.35,0.1,0.67,0.25,0.94,0.46    c0.27,0.21,0.48,0.48,0.63,0.8c0.16,0.32,0.24,0.7,0.26,1.15h-1.02C271.65,99.04,271.45,98.62,271.09,98.36"/>
		<path class="st0" d="M278.32,98.36c-0.36-0.26-0.82-0.39-1.38-0.39c-0.23,0-0.45,0.02-0.67,0.07c-0.22,0.05-0.41,0.12-0.58,0.23    c-0.17,0.11-0.3,0.25-0.41,0.43c-0.1,0.18-0.15,0.4-0.15,0.66c0,0.25,0.07,0.45,0.22,0.61c0.15,0.16,0.34,0.28,0.59,0.38    c0.25,0.1,0.52,0.18,0.83,0.24c0.31,0.06,0.63,0.13,0.95,0.21c0.32,0.08,0.64,0.16,0.95,0.27c0.31,0.1,0.59,0.24,0.83,0.41    c0.25,0.17,0.44,0.39,0.59,0.66c0.15,0.26,0.22,0.6,0.22,1c0,0.43-0.1,0.8-0.29,1.11c-0.19,0.3-0.44,0.55-0.74,0.75    s-0.64,0.33-1.01,0.42c-0.37,0.09-0.75,0.13-1.12,0.13c-0.45,0-0.88-0.06-1.29-0.17c-0.4-0.11-0.76-0.28-1.07-0.52    c-0.3-0.23-0.55-0.53-0.73-0.88c-0.18-0.36-0.27-0.78-0.27-1.28h1.02c0,0.34,0.07,0.63,0.2,0.88c0.13,0.25,0.31,0.45,0.52,0.61    c0.22,0.16,0.47,0.28,0.75,0.35c0.29,0.08,0.58,0.11,0.88,0.11c0.24,0,0.49-0.02,0.73-0.07c0.25-0.05,0.47-0.12,0.66-0.23    c0.2-0.11,0.35-0.26,0.48-0.45c0.12-0.19,0.18-0.43,0.18-0.73c0-0.28-0.07-0.51-0.22-0.68c-0.15-0.17-0.34-0.32-0.59-0.43    c-0.25-0.11-0.52-0.2-0.83-0.27c-0.31-0.07-0.63-0.14-0.95-0.21c-0.32-0.07-0.64-0.16-0.95-0.25c-0.31-0.09-0.59-0.22-0.83-0.37    c-0.25-0.16-0.44-0.35-0.59-0.6c-0.15-0.25-0.22-0.55-0.22-0.92c0-0.41,0.08-0.76,0.25-1.06c0.16-0.3,0.39-0.54,0.66-0.74    c0.28-0.19,0.59-0.34,0.94-0.43c0.35-0.09,0.71-0.14,1.08-0.14c0.42,0,0.8,0.05,1.16,0.15c0.35,0.1,0.67,0.25,0.94,0.46    c0.27,0.21,0.48,0.48,0.63,0.8c0.16,0.32,0.24,0.7,0.26,1.15h-1.02C278.89,99.04,278.68,98.62,278.32,98.36"/>
	</g>
	<rect x="281.55" y="97.25" class="st0" width="1.08" height="8.09"/>
	<g>
		<path class="st0" d="M288.1,104.44c0.48,0,0.85-0.13,1.12-0.39c0.27-0.26,0.4-0.61,0.4-1.06c0-0.26-0.05-0.48-0.15-0.66    c-0.1-0.17-0.23-0.31-0.39-0.41c-0.16-0.1-0.35-0.17-0.56-0.22c-0.21-0.04-0.43-0.06-0.66-0.06h-2.46v2.8H288.1z M287.55,100.73    c0.61,0,1.05-0.11,1.32-0.32c0.27-0.22,0.4-0.54,0.4-0.97c0-0.29-0.05-0.51-0.14-0.68c-0.09-0.17-0.22-0.3-0.37-0.39    c-0.16-0.09-0.34-0.15-0.55-0.18s-0.43-0.04-0.66-0.04h-2.15v2.57H287.55z M287.26,97.25c0.17,0,0.36,0,0.56,0.01    c0.2,0,0.4,0.02,0.59,0.03c0.2,0.02,0.38,0.05,0.55,0.08c0.17,0.04,0.31,0.09,0.44,0.17c0.26,0.16,0.49,0.38,0.68,0.66    c0.18,0.28,0.28,0.62,0.28,1.03c0,0.43-0.1,0.8-0.31,1.12c-0.21,0.31-0.5,0.55-0.89,0.7v0.02c0.5,0.11,0.88,0.33,1.15,0.68    c0.26,0.35,0.4,0.77,0.4,1.27c0,0.3-0.05,0.58-0.16,0.86c-0.11,0.28-0.26,0.53-0.47,0.74c-0.21,0.22-0.46,0.39-0.77,0.52    c-0.31,0.13-0.66,0.2-1.06,0.2h-3.91v-8.1H287.26z"/>
	</g>
	<polygon class="st0" points="293.05,97.25 293.05,104.44 297.34,104.44 297.34,105.35 291.98,105.35 291.98,97.25  "/>
	<polygon class="st0" points="298.17,97.25 298.17,105.35 303.79,105.35 303.79,104.44 299.24,104.44 299.24,101.64 303.45,101.64    303.45,100.73 299.24,100.73 299.24,98.16 303.76,98.16 303.76,97.25  "/>
</g>
</svg>