<svg id="SvgjsSvg1032" width="288" height="288" xmlns="http://www.w3.org/2000/svg" version="1.1" xmlns:xlink="http://www.w3.org/1999/xlink" xmlns:svgjs="http://svgjs.com/svgjs"><defs id="SvgjsDefs1033"></defs><g id="SvgjsG1034"><svg xmlns="http://www.w3.org/2000/svg" fill="none" viewBox="0 0 186 110" width="288" height="288"><mask id="a" style="mask-type:alpha" width="186" height="110" x="0" y="0" maskUnits="userSpaceOnUse"><rect width="110" height="185" x=".002" y="110" fill="#ffffff" transform="rotate(-90 .002 110)" class="colorfff svgShape"></rect></mask><g mask="url(#a)" fill="#483f6c" class="color000 svgShape"><circle cx="4.502" cy="101.5" r="1.5" fill="#483f6c" transform="rotate(-90 4.502 101.5)" class="color2E2E2E svgShape"></circle><circle cx="4.502" cy="63.5" r="1.5" fill="#483f6c" transform="rotate(-90 4.502 63.5)" class="color2E2E2E svgShape"></circle><circle cx="4.502" cy="25.5" r="1.5" fill="#483f6c" transform="rotate(-90 4.502 25.5)" class="color2E2E2E svgShape"></circle><circle cx="42.502" cy="101.5" r="1.5" fill="#483f6c" transform="rotate(-90 42.502 101.5)" class="color2E2E2E svgShape"></circle><circle cx="42.502" cy="63.5" r="1.5" fill="#483f6c" transform="rotate(-90 42.502 63.5)" class="color2E2E2E svgShape"></circle><circle cx="42.502" cy="25.5" r="1.5" fill="#483f6c" transform="rotate(-90 42.502 25.5)" class="color2E2E2E svgShape"></circle><circle cx="80.502" cy="101.5" r="1.5" fill="#483f6c" transform="rotate(-90 80.502 101.5)" class="color2E2E2E svgShape"></circle><circle cx="80.502" cy="63.5" r="1.5" fill="#483f6c" transform="rotate(-90 80.502 63.5)" class="color2E2E2E svgShape"></circle><circle cx="80.502" cy="25.5" r="1.5" fill="#483f6c" transform="rotate(-90 80.502 25.5)" class="color2E2E2E svgShape"></circle><circle cx="118.502" cy="101.5" r="1.5" fill="#483f6c" transform="rotate(-90 118.502 101.5)" class="color2E2E2E svgShape"></circle><circle cx="118.502" cy="63.5" r="1.5" fill="#483f6c" transform="rotate(-90 118.502 63.5)" class="color2E2E2E svgShape"></circle><circle cx="118.502" cy="25.5" r="1.5" fill="#483f6c" transform="rotate(-90 118.502 25.5)" class="color2E2E2E svgShape"></circle><circle cx="156.502" cy="101.5" r="1.5" fill="#483f6c" transform="rotate(-90 156.502 101.5)" class="color2E2E2E svgShape"></circle><circle cx="156.502" cy="63.5" r="1.5" fill="#483f6c" transform="rotate(-90 156.502 63.5)" class="color2E2E2E svgShape"></circle><circle cx="156.502" cy="25.5" r="1.5" fill="#483f6c" transform="rotate(-90 156.502 25.5)" class="color2E2E2E svgShape"></circle></g></svg></g></svg>