<svg id="SvgjsSvg1011" width="288" height="288" xmlns="http://www.w3.org/2000/svg" version="1.1" xmlns:xlink="http://www.w3.org/1999/xlink" xmlns:svgjs="http://svgjs.com/svgjs"><defs id="SvgjsDefs1012"></defs><g id="SvgjsG1013"><svg xmlns="http://www.w3.org/2000/svg" fill="none" viewBox="0 0 111 122" width="288" height="288"><mask id="a" style="mask-type:alpha" width="111" height="122" x="0" y="0" maskUnits="userSpaceOnUse"><rect width="110" height="122" x="110.002" y="122" fill="#ffffff" transform="rotate(180 110.002 122)" class="colorfff svgShape"></rect></mask><g mask="url(#a)" fill="#483f6c" class="color000 svgShape"><circle cx="97.502" cy="112.5" r="1.5" fill="#483f6c" transform="rotate(180 97.502 112.5)" class="color000 svgShape"></circle><circle cx="59.502" cy="112.5" r="1.5" fill="#483f6c" transform="rotate(180 59.502 112.5)" class="color000 svgShape"></circle><circle cx="21.502" cy="112.5" r="1.5" fill="#483f6c" transform="rotate(180 21.502 112.5)" class="color000 svgShape"></circle><circle cx="97.502" cy="74.5" r="1.5" fill="#483f6c" transform="rotate(180 97.502 74.5)" class="color000 svgShape"></circle><circle cx="59.502" cy="74.5" r="1.5" fill="#483f6c" transform="rotate(180 59.502 74.5)" class="color000 svgShape"></circle><circle cx="21.502" cy="74.5" r="1.5" fill="#483f6c" transform="rotate(180 21.502 74.5)" class="color000 svgShape"></circle><circle cx="97.502" cy="36.5" r="1.5" fill="#483f6c" transform="rotate(180 97.502 36.5)" class="color000 svgShape"></circle><circle cx="59.502" cy="36.5" r="1.5" fill="#483f6c" transform="rotate(180 59.502 36.5)" class="color000 svgShape"></circle><circle cx="21.502" cy="36.5" r="1.5" fill="#483f6c" transform="rotate(180 21.502 36.5)" class="color000 svgShape"></circle></g></svg></g></svg>