<svg id="SvgjsSvg1016" width="288" height="288" xmlns="http://www.w3.org/2000/svg" version="1.1" xmlns:xlink="http://www.w3.org/1999/xlink" xmlns:svgjs="http://svgjs.com/svgjs"><defs id="SvgjsDefs1017"></defs><g id="SvgjsG1018"><svg xmlns="http://www.w3.org/2000/svg" fill="none" viewBox="0 0 164 118" width="288" height="288"><path stroke="#483f6c" stroke-linecap="round" stroke-width="3" d="M1.86857 116.442C2.85872 105.032 10.6217 93.3191 23.3272 92.4198C33.0523 91.7314 43.0907 97.3767 50.3838 102.959C51.5874 103.88 61.2415 111.786 54.9685 113.644C43.498 117.041 34.9595 108.227 32.1606 97.9085C28.002 82.5768 33.6453 67.4642 45.0721 56.7237C59.2475 43.3998 83.5441 31.3842 102.522 40.9449C111.372 45.403 115.692 51.4537 118.173 60.8037C120.149 68.2473 121.194 77.5633 114.914 83.6278C104.58 93.6085 92.2843 83.7988 86.8982 73.9139C75.9841 53.8838 84.6152 26.0245 104.75 15.5238C122.411 6.31313 142.797 3.18114 162.446 1.96113" class="colorStroke0E0E0E svgStroke"></path></svg></g></svg>