<?xml version="1.0" encoding="utf-8"?>
<!-- Generator: Adobe Illustrator 25.2.0, SVG Export Plug-In . SVG Version: 6.00 Build 0)  -->
<svg version="1.1" id="Layer_1" xmlns="http://www.w3.org/2000/svg" xmlns:xlink="http://www.w3.org/1999/xlink" x="0px" y="0px"
	 viewBox="0 0 283.5 40.8" style="enable-background:new 0 0 283.5 40.8;" xml:space="preserve">
<style type="text/css">
	.st0{fill:#FFD700;}
	.st1{opacity:0.3;fill:#FFD700;enable-background:new    ;}
</style>
<g>
	<polygon class="st0" points="21.3,0 27.9,13.4 42.7,15.5 32,26 34.6,40.7 21.3,33.7 8.1,40.7 10.6,26 0,15.5 14.7,13.4 	"/>
	<polygon class="st0" points="81.5,0 88.1,13.4 102.9,15.5 92.2,26 94.7,40.7 81.5,33.7 68.3,40.7 70.8,26 60.1,15.5 74.9,13.4 	"/>
	<polygon class="st0" points="141.7,0 148.3,13.4 163.1,15.5 152.4,26 154.9,40.7 141.7,33.7 128.5,40.7 131,26 120.3,15.5 
		135.1,13.4 	"/>
	<polygon class="st0" points="201.9,0 208.5,13.4 223.3,15.5 212.6,26 215.1,40.7 201.9,33.7 188.7,40.7 191.2,26 180.5,15.5 
		195.3,13.4 	"/>
	<polygon class="st0" points="262.1,0 268.7,13.4 272.6,13.9 272.6,39.2 262.1,33.7 248.8,40.7 251.4,26 240.7,15.5 255.4,13.4 	"/>
	<polygon class="st1" points="262.1,0 268.7,13.4 283.5,15.5 272.8,26 275.3,40.7 262.1,33.7 248.9,40.7 251.4,26 240.7,15.5 
		255.5,13.4 	"/>
</g>
</svg>
